<?xml version="1.0" encoding="utf-8"?>
<svg version="1.1" xmlns="http://www.w3.org/2000/svg" width="1024" height="1024">
  <path d="M 0 0 C 1.957 -0.009 3.913 -0.026 5.87 -0.042 C 97.755 -0.627 182.541 37.412 247.375 101.365 C 251.217 105.271 254.86 109.289 258.375 113.49 C 259.055 114.3 259.055 114.3 259.749 115.126 C 271.97 129.725 282.938 144.95 292.375 161.49 C 292.807 162.236 293.238 162.982 293.683 163.751 C 313.618 198.306 325.844 236.24 332.375 275.49 C 332.542 276.457 332.708 277.424 332.88 278.42 C 337.93 308.911 337.966 343.082 332.375 373.49 C 332.176 374.614 331.978 375.738 331.773 376.895 C 322.534 428.126 301.79 475.191 271.736 517.569 C 270.321 519.566 268.919 521.572 267.52 523.58 C 257.508 537.904 247.317 552.083 236.199 565.573 C 232.313 570.298 228.568 575.113 224.875 579.99 C 196.114 616.578 191.709 622.035 187.264 627.477 C 111.737 725.832 109.402 729.007 107.069 732.185 C 60.362 800.32 48.243 819.813 36.375 839.49 C 9.859 884.41 6.441 890.104 2.375 895.49 C -5.579 883.703 -6.156 882.644 -6.75 881.553 C -13.674 869.015 -21.02 856.773 -28.512 844.569 C -69.166 780.517 -80.598 763.305 -92.625 746.49 C -93.159 745.744 -93.692 744.997 -94.242 744.228 C -205.996 598.246 -212.083 590.698 -218.241 583.181 C -234.372 563.47 -249.781 543.172 -264.362 522.291 C -265.402 520.809 -266.455 519.336 -267.512 517.865 C -299.127 473.772 -320.482 423.155 -328.625 369.49 C -328.813 368.288 -329 367.086 -329.194 365.848 C -330.95 353.613 -330.963 341.368 -330.941 329.028 C -330.938 325.458 -330.961 321.89 -330.986 318.32 C -331.043 298.308 -329.213 278.78 -324.813 259.24 C -324.555 258.071 -324.297 256.901 -324.031 255.695 C -321.721 245.459 -318.913 235.452 -315.625 225.49 C -315.372 224.704 -315.118 223.917 -314.857 223.106 C -304.19 190.135 -288.328 157.651 -266.625 130.49 C -265.984 129.671 -265.344 128.851 -264.684 128.006 C -262.691 125.478 -260.666 122.98 -258.625 120.49 C -258.215 119.989 -257.806 119.488 -257.383 118.971 C -250.862 111.021 -243.999 103.657 -236.625 96.49 C -234.102 93.983 -231.597 91.462 -229.117 88.912 C -222.954 82.621 -216.579 76.915 -209.625 71.49 C -209.009 71.003 -208.393 70.516 -207.758 70.014 C -164.869 36.136 -114.254 14.468 -60.625 4.49 C -38.214 0.3 -19.199 0.078 0 0 Z" fill="#0A2F5C" transform="translate(509.6250228881836,62.50959396362305)"/>
  <path d="M 539.877 148.831 C 542.07 149.134 544.266 149.395 546.465 149.654 C 573.999 153.162 600.68 163.108 625.067 176.134 C 625.732 176.486 626.397 176.838 627.082 177.2 C 644.688 186.576 660.589 198.404 675.067 212.134 C 676.05 213.067 676.05 213.067 677.054 214.018 C 687.836 224.326 697.468 234.941 706.067 247.134 C 706.509 247.753 706.952 248.372 707.408 249.01 C 728.119 278.174 741.507 312.051 748.067 347.134 C 748.313 348.412 748.313 348.412 748.563 349.716 C 759.365 408.467 745.456 473.831 711.709 523.057 C 710.511 524.761 709.295 526.451 708.067 528.134 C 707.673 528.676 707.28 529.219 706.874 529.778 C 693.466 548.082 678.023 565.214 660.067 579.134 C 658.63 580.296 658.63 580.296 657.165 581.482 C 611.017 618.202 547.13 636.303 488.505 630.447 C 446.399 625.594 404.17 609.359 370.067 584.134 C 369.49 583.713 368.913 583.291 368.319 582.857 C 360.082 576.816 352.429 570.212 345.067 563.134 C 344.173 562.281 344.173 562.281 343.261 561.41 C 334.911 553.403 327.263 545.182 320.373 535.885 C 319.06 534.125 317.717 532.393 316.368 530.661 C 297.297 505.877 284.728 476.825 277.317 446.572 C 277.037 445.442 277.037 445.442 276.752 444.291 C 276.124 441.581 275.584 438.867 275.067 436.134 C 274.941 435.469 274.814 434.803 274.684 434.118 C 272.263 420.983 271.595 408.131 271.676 394.789 C 271.692 391.637 271.676 388.486 271.657 385.333 C 271.643 372.333 272.704 359.913 275.067 347.134 C 275.26 346.032 275.454 344.929 275.653 343.794 C 286.41 285.082 321.93 229.417 370.067 194.134 C 370.636 193.709 371.206 193.285 371.792 192.847 C 419.659 157.166 480.495 140.492 539.877 148.831 Z" fill="#FCFCFC"/>
  <path d="M0 0 C1.57553146 -0.00019638 1.57553146 -0.00019638 3.18289185 -0.00039673 C19.83170093 0.03687077 35.66116829 1.41378487 52 4.75 C53.07419189 4.96873779 54.14838379 5.18747559 55.25512695 5.4128418 C64.2010973 7.28107926 72.89927413 9.53500175 81.5625 12.4375 C82.37154785 12.70369141 83.1805957 12.96988281 84.01416016 13.24414062 C130.41141809 28.68955506 173.23847617 56.7515425 203.5625 95.4375 C204.27962158 96.33202881 204.27962158 96.33202881 205.01123047 97.24462891 C247.34112953 150.07351839 269.90432142 220.078452 262.796875 287.78125 C261.26859043 301.47513989 259.18980382 315.13352307 255.5625 328.4375 C255.33755859 329.28054688 255.11261719 330.12359375 254.88085938 330.9921875 C249.14519822 352.11879164 241.13740952 372.89305529 229.68066406 391.60742188 C228.52307484 393.50202642 227.39793425 395.41372393 226.2734375 397.328125 C219.88929458 408.03106891 212.42744531 417.78608216 204.5625 427.4375 C204.04397461 428.07461914 203.52544922 428.71173828 202.99121094 429.36816406 C192.3528154 442.33522468 180.74355814 454.05003925 167.5625 464.4375 C166.74007813 465.13875 165.91765625 465.84 165.0703125 466.5625 C152.12409825 477.58055468 137.5530975 486.49180773 122.5625 494.4375 C121.92666992 494.7773291 121.29083984 495.1171582 120.63574219 495.46728516 C80.91316582 516.53778419 37.31683837 525.47261218 -7.4375 524.4375 C-8.16888184 524.42348145 -8.90026367 524.40946289 -9.65380859 524.39501953 C-63.32759162 523.11298137 -118.09591424 500.10270733 -159.4375 466.4375 C-160.03191895 465.95877441 -160.62633789 465.48004883 -161.23876953 464.98681641 C-175.62077905 453.33459411 -189.20455166 440.16692958 -200.4375 425.4375 C-201.4242349 424.20058775 -202.41265054 422.96501524 -203.40234375 421.73046875 C-221.73849883 398.61806331 -235.37234629 373.09579064 -245.4375 345.4375 C-245.70433594 344.71014648 -245.97117187 343.98279297 -246.24609375 343.23339844 C-249.78336868 333.48677197 -252.5114217 323.61552036 -254.4375 313.4375 C-254.62231934 312.46119629 -254.80713867 311.48489258 -254.99755859 310.47900391 C-260.66653487 278.92762283 -261.40847873 244.79764259 -254.4375 213.4375 C-254.13014899 211.87707794 -253.8266177 210.31589753 -253.52734375 208.75390625 C-241.75573806 149.38575337 -206.35983341 92.53063079 -158.4375 55.4375 C-157.18429627 54.43303925 -155.93173721 53.42777386 -154.6796875 52.421875 C-130.66198549 33.34225832 -103.50636041 19.94562881 -74.4375 10.4375 C-73.66051758 10.17743164 -72.88353516 9.91736328 -72.08300781 9.64941406 C-66.92627608 7.95091997 -61.73572225 6.61696989 -56.4375 5.4375 C-55.4489502 5.21046387 -54.46040039 4.98342773 -53.44189453 4.74951172 C-35.60517815 0.82442564 -18.21811648 -0.02369642 0 0 Z M-161.4375 86.4375 C-162.06446777 87.03723633 -162.69143555 87.63697266 -163.33740234 88.25488281 C-172.5308837 97.09468318 -180.89795334 106.1512367 -188.4375 116.4375 C-188.86224609 117.00678223 -189.28699219 117.57606445 -189.72460938 118.16259766 C-199.85875022 131.75783123 -208.17865404 146.1272167 -215.4375 161.4375 C-215.77136719 162.13182129 -216.10523438 162.82614258 -216.44921875 163.54150391 C-224.0763492 179.50806866 -229.4258363 196.04389809 -233.25 213.3125 C-233.44489014 214.18994873 -233.63978027 215.06739746 -233.84057617 215.97143555 C-237.2209145 232.11631279 -237.84478509 247.93221941 -237.8125 264.375 C-237.81162384 265.46354279 -237.81074768 266.55208557 -237.80984497 267.6736145 C-237.76745045 283.62671762 -237.25577091 298.87757247 -233.4375 314.4375 C-233.19080566 315.49291992 -232.94411133 316.54833984 -232.68994141 317.63574219 C-227.76535985 338.41632757 -220.38396362 357.57999212 -210.4375 376.4375 C-209.92445313 377.43136719 -209.41140625 378.42523438 -208.8828125 379.44921875 C-199.54329928 397.14381002 -186.95740476 413.44730493 -173.04150391 427.78222656 C-171.930397 428.9288483 -170.82635164 430.0823392 -169.72802734 431.24121094 C-160.38437524 441.09526293 -150.49363808 449.561588 -139.4375 457.4375 C-138.74350098 457.93846191 -138.04950195 458.43942383 -137.33447266 458.95556641 C-89.16064306 493.46162883 -27.4159339 511.18704789 31.5625 502.4375 C32.28953125 502.33566406 33.0165625 502.23382812 33.765625 502.12890625 C79.95977367 495.58742715 123.61719903 476.35964717 158.5625 445.4375 C159.43261719 444.67824219 160.30273438 443.91898438 161.19921875 443.13671875 C171.20180724 434.29612641 180.33985088 424.95668354 188.5625 414.4375 C189.57149557 413.18089401 190.58061822 411.92439006 191.58984375 410.66796875 C209.17144209 388.5242579 222.25668334 363.46679577 230.88085938 336.55322266 C231.47512232 334.7087088 232.10199451 332.87476424 232.734375 331.04296875 C236.05973192 321.07968783 237.87003619 310.78185445 239.5625 300.4375 C239.68399414 299.71481934 239.80548828 298.99213867 239.93066406 298.24755859 C249.51512371 238.23739704 233.59083449 172.32675922 198.4375 123 C191.67282493 113.68974659 184.48318609 104.78981048 176.5625 96.4375 C175.94084961 95.78185059 175.31919922 95.12620117 174.67871094 94.45068359 C164.37180946 83.6700398 153.75922112 74.02795057 141.5625 65.4375 C140.61793945 64.76581787 140.61793945 64.76581787 139.65429688 64.08056641 C118.93607724 49.45690191 96.60923123 39.244527 72.5625 31.4375 C71.30759766 31.02902832 71.30759766 31.02902832 70.02734375 30.61230469 C-11.2538429 4.63875702 -100.48741318 27.79789252 -161.4375 86.4375 Z " fill="#010714" transform="translate(509.4375,126.5625)"/>
  <path d="M 0 0 C 0 29.04 0 58.08 0 88 C -4.56 86.176 -7.56 84.196 -11.187 81.063 C -12.045 80.324 -12.045 80.324 -12.92 79.571 C -32.785 62.166 -46.8 38.675 -58 15 C -56.47 13.763 -54.94 12.526 -53.41 11.289 C -51.867 10.033 -51.867 10.033 -51 8 C -40.255 3.851 -29.256 2.051 -17.875 0.875 C -7.063 -0.055 -3.529 0 0 0 Z" fill="#3183B3" transform="translate(502,520)"/>
  <path d="M 0 0 C 3.438 1 3.438 1 6 2 C 4.774 8.631 3.232 15.141 1.538 21.667 C -2.01 35.351 -4.943 49.014 -7 63 C -7.162 64.078 -7.324 65.155 -7.491 66.265 C -9.04 77.124 -9.849 88.001 -10.625 98.938 C -11.079 105.228 -11.533 111.519 -12 118 C -35.76 118 -59.52 118 -84 118 C -77.379 129.205 -77.379 129.205 -67 136 C -64.335 136.325 -64.335 136.325 -61.405 136.319 C -60.284 136.339 -59.164 136.359 -58.009 136.379 C -56.804 136.391 -55.6 136.402 -54.359 136.414 C -53.122 136.433 -51.885 136.453 -50.61 136.473 C -47.329 136.522 -44.047 136.564 -40.766 136.601 C -37.414 136.641 -34.063 136.692 -30.711 136.742 C -24.141 136.838 -17.57 136.922 -11 137 C -11 143.27 -11 149.54 -11 156 C -9.02 156.66 -7.04 157.32 -5 158 C -3.034 158.961 -3.034 158.961 -1.352 159.945 C -0.739 160.3 -0.127 160.654 0.504 161.02 C 1.121 161.384 1.739 161.749 2.375 162.125 C 3.016 162.498 3.656 162.87 4.316 163.254 C 5.88 164.164 7.441 165.081 9 166 C 8.892 165.122 8.892 165.122 8.781 164.227 C 7.784 155.002 31.976 184.763 31.976 175.283 C 36.324 179.91 53.15 192.933 49.925 191.589 C 51.492 190.832 65.956 209.964 63.493 214.948 C 64.597 218.375 63.819 221.538 63.566 222.336 C 63.427 222.772 60.106 239.331 52 246 C 48.931 249.705 47.998 253.356 47 258 C 46.415 259.756 45.656 263.081 45.031 264.824 C 43.319 269.51 33.082 277.247 31.125 278.375 C 24.988 281.856 24.988 281.856 23 284 C 23.35 287.722 24.603 290.442 26.484 293.633 C 30.329 300.095 30.908 301.066 31.505 302.066 C 39.342 315.058 47.919 327.548 57.195 339.555 C 58.969 341.958 60.508 344.415 62 347 C 44.377 344.512 27.454 338.804 11.313 331.375 C 10.541 331.027 9.77 330.68 8.975 330.322 C 4.047 327.946 0.92 325.688 -2 321 C -2.452 318.07 -2.626 315.835 -2.5 312.938 C -2.481 312.192 -2.462 311.446 -2.442 310.677 C -1.906 297.126 2.004 285.323 11 275 C 12.756 273.499 14.55 272.041 16.375 270.625 C 24.309 264.168 28.059 259.671 31.037 249.833 C 33.071 243.288 36.41 237.815 40 232 C 44.536 224.477 44.536 224.477 45.707 215.98 C 37.612 193.307 -12.04 174.136 -32.091 164.519 C -36.023 162.663 -36.023 162.663 -39.991 160.884 C -41.41 160.259 -42.815 159.602 -44.208 158.921 C -51.452 155.613 -58.24 155.343 -66.125 155.25 C -67.368 155.22 -68.61 155.191 -69.891 155.16 C -72.927 155.09 -75.963 155.037 -79 155 C -79.238 154.317 -79.476 153.635 -79.721 152.931 C -82.1 146.186 -82.1 146.186 -87.375 141.625 C -93.166 137.501 -95.3 132.4 -98 126 C -99.206 123.182 -100.415 120.366 -101.626 117.551 C -102.5 115.519 -103.369 113.485 -104.236 111.449 C -106.563 106.047 -109.017 100.993 -112.125 96 C -114.711 91.754 -116.147 89.067 -115 84 C -112.301 77.618 -109.135 72.924 -102.699 69.93 C -96.184 67.686 -89.152 68.052 -82.937 71 C -78.165 73.679 -73.84 76.951 -69.543 80.328 C -66.806 82.128 -65.288 83.062 -62 83 C -57.246 79.416 -55.016 74.612 -52.375 69.438 C -44.534 54.78 -33.359 43.131 -17.777 36.594 C -12.71 32.05 -13.556 22.127 -13.187 15.813 C -13.143 14.841 -13.099 13.87 -13.053 12.869 C -12.729 8.188 -12.514 5.686 -9.641 1.852 C -6.15 -0.596 -4.192 -0.515 0 0 Z" fill="#020815" transform="translate(408,261)"/>
  <path d="M0 0 C28.38 0 56.76 0 86 0 C86 34.32 86 68.64 86 104 C74.12 104.99 74.12 104.99 62 106 C56.32570588 106.63835809 50.66231233 107.27682424 45 108 C46.19196378 104.80861311 47.49390118 102.10377431 49.4375 99.3125 C53.90942524 92.27384844 56.09613675 84.33063931 55 76 C49.68583339 57.73255227 29.00771696 47.08443967 13.8828125 37.9453125 C13.06329102 37.44652588 12.24376953 36.94773926 11.39941406 36.43383789 C9.82339447 35.4920427 8.23159148 34.57608042 6.62402344 33.68920898 C1.25688821 30.63720318 1.25688821 30.63720318 0 27.51953125 C0 18.34635417 0 9.17317708 0 0 Z " fill="#3184B3" transform="translate(416,398)"/>
  <path d="M0 0 C9.54446306 8.17219047 16.24459113 20.99313997 22.8203125 31.55859375 C23.42746094 32.51765625 24.03460937 33.47671875 24.66015625 34.46484375 C25.12550781 35.23828125 25.59085938 36.01171875 26.0703125 36.80859375 C26.44671875 37.4325 26.823125 38.05640625 27.2109375 38.69921875 C28.07229478 41.32746276 27.61504402 42.92901894 26.8203125 45.55859375 C25.18896484 47.11767578 25.18896484 47.11767578 23.03125 48.44140625 C22.21624023 48.94575195 21.40123047 49.45009766 20.56152344 49.96972656 C14.5100188 53.47731404 8.38516 56.84207047 2.234375 60.171875 C-10.22102623 66.08241016 -10.22102623 66.08241016 -18.96313477 75.66918945 C-19.03459717 76.29269287 -19.10605957 76.91619629 -19.1796875 77.55859375 C-19.25832031 78.23019531 -19.33695313 78.90179688 -19.41796875 79.59375 C-19.60083049 83.91239389 -19.60083049 83.91239389 -17.5546875 87.55859375 C-14.52465164 88.83439832 -12.45904043 88.80624281 -9.1796875 88.55859375 C-6.24913263 87.36662669 -6.24913263 87.36662669 -3.4921875 85.68359375 C-2.56019531 85.14992188 -1.62820313 84.61625 -0.66796875 84.06640625 C1.18889309 82.94121211 3.0137863 81.76294455 4.8203125 80.55859375 C12.68645092 79.73872092 18.17548972 81.92058299 25.2578125 85.18359375 C26.23041016 85.61027344 27.20300781 86.03695312 28.20507812 86.4765625 C49.2054541 95.87552837 49.2054541 95.87552837 52.8203125 103.55859375 C55.04275258 111.70145182 56.02194884 120.13467535 55.8203125 128.55859375 C49.21032896 127.63319605 49.21032896 127.63319605 46.04296875 127.02734375 C42.4543193 126.50535838 39.00800335 126.52164897 35.3828125 126.49609375 C24.93400061 126.10173028 17.42881736 121.07113674 8.7890625 115.66015625 C3.65294763 112.5871437 -0.22945965 110.53200706 -6.26953125 111.6328125 C-20.05618485 116.01863385 -33.5451137 123.74001995 -44.35546875 133.359375 C-47.1796875 135.55859375 -47.1796875 135.55859375 -51.1796875 135.55859375 C-51.25485596 134.46208496 -51.33002441 133.36557617 -51.4074707 132.23583984 C-53.75930257 98.21890808 -56.8024869 64.67043073 -66.70654297 31.83496094 C-67.69751678 28.53171491 -68.1796875 26.05745159 -68.1796875 22.55859375 C-66.48743871 22.13553155 -64.79516566 21.71256621 -63.1027832 21.29003906 C-61.63475122 20.92257751 -60.16714963 20.55339284 -58.69995117 20.18261719 C-55.5341425 19.38453154 -52.37401438 18.60090482 -49.18359375 17.90625 C-34.72085583 14.69464056 -20.5838126 8.71853612 -7.5090332 1.8215332 C-2.78715689 -0.56442425 -2.78715689 -0.56442425 0 0 Z " fill="#020815" transform="translate(678.1796875,242.44140625)"/>
  <path d="M0 0 C2.23545704 0.18551511 4.4640748 0.45324355 6.6875 0.75 C7.75556885 0.88825195 7.75556885 0.88825195 8.84521484 1.02929688 C12.87089096 1.55606912 16.88780389 2.12882545 20.90234375 2.734375 C36.71004619 5.05173452 51.86831242 5.92455416 68 7 C68 41.32 68 75.64 68 111 C39.62 111 11.24 111 -18 111 C-18 102.90360939 -17.94988909 95.08592728 -17.25 87.0625 C-17.16202148 86.0523584 -17.07404297 85.0422168 -16.98339844 84.00146484 C-10.21118763 10.21118763 -10.21118763 10.21118763 0 0 Z " fill="#3184B3" transform="translate(434,268)"/>
  <path d="M0 0 C28.05 0 56.1 0 85 0 C85 30.37527461 85 30.37527461 82.9375 43.75 C82.82840302 44.49539032 82.71930603 45.24078064 82.60690308 46.00875854 C79.36480039 68.13238712 74.27456043 89.84248724 67 111 C56.93331088 110.3519554 47.04460112 108.85411286 37.09960938 107.23217773 C24.72912986 105.22570986 12.54129066 104.14011733 0 103 C0 69.01 0 35.02 0 0 Z " fill="#3184B3" transform="translate(522,398)"/>
  <path d="M0 0 C7.23088759 23.6084287 12.1928115 47.52544223 14.875 72.0625 C15.05530762 73.66206543 15.05530762 73.66206543 15.23925781 75.29394531 C16.34114694 86.61645315 16 97.4686912 16 109 C-12.05 109 -40.1 109 -69 109 C-69 74.68 -69 40.36 -69 5 C-52.17 4.01 -52.17 4.01 -35 3 C-21.89195514 1.69411222 -21.89195514 1.69411222 -8.80371094 0.24365234 C-5.85551407 -0.01255634 -2.95780674 -0.04100471 0 0 Z " fill="#3183B3" transform="translate(591,270)"/>
  <path d="M0 0 C3.59208205 1.3791725 6.36714941 2.86212182 9.4375 5.1875 C17.10657293 10.62785576 26.60076793 17.34196284 36.4296875 16.64453125 C40.86485571 15.53236901 44.81228731 13.47084917 48.82421875 11.3125 C52.57357887 9.76294896 54.98364133 9.40152048 59 10 C62.58151398 13.61335711 63.80309566 16.91757967 64.96484375 21.8125 C65.12489395 22.4626709 65.28494415 23.1128418 65.44984436 23.78271484 C65.95808692 25.85237817 66.44926226 27.92553424 66.9375 30 C67.58182599 32.71101372 68.23611295 35.41928465 68.90234375 38.125 C69.06431244 38.78773926 69.22628113 39.45047852 69.39315796 40.13330078 C70.81071492 45.71542945 72.83866762 50.9510283 75.14672852 56.23046875 C76.36110098 60.17205423 75.65931898 62.66311099 73.87109375 66.2890625 C66.79960188 77.81154789 58.79621073 89.60552662 49 99 C44.22546801 97.61205465 39.94900122 95.56885722 35.51293945 93.36938477 C18.85434005 85.10979516 1.64428486 78.80019843 -16 73 C-14.89625444 66.77888868 -13.41477415 60.75744577 -11.6875 54.6875 C-6.59536037 36.6283877 -2.85486687 18.54573822 0 0 Z " fill="#030815" transform="translate(624,441)"/>
  <path d="M 0 0 C 11.766 8.953 19.119 22.095 26.547 34.605 C 29.953 40.072 33.674 43.431 39 47 C 42.344 49.471 44.518 51.1 46 55 C 46.1 57.862 46.1 57.862 45.914 61.172 C 45.318 76.207 45.178 87.496 54 100 C 54.535 100.831 55.07 101.663 55.621 102.52 C 60.1 109.061 65.857 113.349 72.563 117.438 C 81.295 122.9 85.159 128.735 87.688 138.713 C 88.397 141.825 89.077 144.943 89.75 148.063 C 92.362 159.801 95.631 171.231 99.275 182.685 C 100.243 185.775 101.13 188.882 102 192 C 95.044 187.947 88.703 183.353 82.438 178.313 C 74.832 171.83 73.957 170.188 73 168 C 73.66 167.67 74.32 167.34 75 167 C 74.835 166.031 74.67 165.061 74.5 164.063 C 73.866 159.705 73.91 155.394 74 151 C 72.662 151.451 72.662 151.451 71.297 151.91 C 69.541 152.481 69.541 152.481 67.75 153.063 C 66.59 153.445 65.43 153.828 64.234 154.223 C 59.613 155.333 59.613 155.333 57 154 C 55.184 152.208 53.602 150.468 52 148.5 C 51.288 147.637 51.288 147.637 50.561 146.757 C 40.222 134.037 31.503 120.564 24 106 C 23.639 105.304 23.278 104.609 22.907 103.892 C 16.991 92.342 12.802 80.389 9 68 C 8.414 66.159 8.414 66.159 7.816 64.281 C 2.517 46.299 -0.294 26.141 -0.062 7.375 C -0.058 6.657 -0.053 5.939 -0.049 5.199 C -0.037 3.466 -0.019 1.733 0 0 Z" fill="#020815" transform="translate(290,385)"/>
  <path d="M0 0 C0 28.05 0 56.1 0 85 C-12.80718353 85 -24.68782354 84.9579336 -37.26318359 83.40087891 C-39.55544259 83.11816196 -41.8495028 82.85684243 -44.14453125 82.59765625 C-56.25850445 81.17185954 -56.25850445 81.17185954 -61 79 C-58.24313502 59.99998458 -43.84460837 39.55481537 -32 25 C-31.36626465 24.20021729 -31.36626465 24.20021729 -30.71972656 23.38427734 C-12.16679948 0 -12.16679948 0 0 0 Z " fill="#3184B3" transform="translate(502,170)"/>
  <path d="M0 0 C6.89359921 0.53027686 12.75290145 2.46850681 19.1875 4.9375 C20.22745117 5.33211426 21.26740234 5.72672852 22.33886719 6.13330078 C48.28938659 16.17269644 48.28938659 16.17269644 57 23 C49.35705195 41.93752682 11.32036564 57.54354916 -6 65 C-19.0533456 70.38763741 -32.12478593 74.39625613 -46 77 C-44.67723806 74.19846996 -43.1936107 71.75504915 -41.34765625 69.26953125 C-40.82421631 68.55829102 -40.30077637 67.84705078 -39.76147461 67.11425781 C-38.92048218 65.9748877 -38.92048218 65.9748877 -38.0625 64.8125 C-23.18547737 44.3722989 -11.06388368 22.71350237 0 0 Z " fill="#020815" transform="translate(601,531)"/>
  <path d="M0 0 C18.31857443 3.66371489 30.59356671 22.74691058 40.375 37.375 C44.38803135 43.62879184 47.85958036 50.17506114 51.3125 56.75 C51.8163623 57.70825684 52.32022461 58.66651367 52.83935547 59.65380859 C61 75.45977463 61 75.45977463 61 80 C53.68475256 81.78420669 46.41837039 82.80449043 38.9375 83.625 C37.2968457 83.82609375 37.2968457 83.82609375 35.62304688 84.03125 C23.59441023 85.35798764 12.34601385 85 0 85 C0 56.95 0 28.9 0 0 Z " fill="#3183B3" transform="translate(522,170)"/>
  <path d="M 0 0 C -1.428 3.021 -3.095 5.719 -4.984 8.473 C -18.718 28.795 -39.399 72.557 -39.399 72.557 C -39.399 72.557 -40.748 72.691 -41.648 72.531 C -52.925 70.744 -59.657 72.328 -69 79 C -72.084 81.37 -75.128 83.783 -78.113 86.277 C -82.641 88.979 -86.24 88.418 -91.238 87.23 C -92.76 86.714 -92.76 86.714 -94.312 86.188 C -95.34 85.851 -96.367 85.515 -97.426 85.168 C -100 84 -100 84 -102 81 C -101.863 77.238 -101.698 74.846 -99.267 71.9 C -96.807 69.838 -94.905 69 -91.859 68.035 C -90.871 67.71 -89.882 67.384 -88.863 67.049 C -87.322 66.561 -87.322 66.561 -85.75 66.063 C -75.19 62.888 -75.19 62.888 -66 57 C -64.493 54.574 -64.493 54.574 -65 52 C -66.778 49.531 -66.778 49.531 -69.312 47.375 C -75.807 41.401 -75.807 41.401 -76.341 37.53 C -75.797 33.491 -73.366 32.185 -70.327 29.718 C -66.754 27.08 -63.056 24.801 -59.187 22.625 C -58.367 22.159 -57.547 21.693 -56.701 21.212 C -18.843 0 -18.843 0 0 0 Z" fill="#030916" transform="translate(460,173)"/>
  <path d="M 0 0 C 17.551 0 17.551 0 24.438 0.75 C 25.248 0.835 26.059 0.92 26.894 1.008 C 34.022 1.803 41.107 2.863 48.188 4 C 57.99 5.716 57.99 5.716 59 6 C 60 8 60 8 59.355 10.152 C 47.249 39.022 29.218 69.025 3 87 C 1.515 87.495 1.515 87.495 0 88 C 0 58.96 0 29.92 0 0 Z" fill="#3083B3" transform="translate(522,520)"/>
  <path d="M0 0 C7.16430222 0.53805973 13.45708153 2.13459037 20.25 4.4375 C21.29631592 4.79166992 22.34263184 5.14583984 23.4206543 5.51074219 C51.81430197 15.40358067 75.24435637 31.72945495 98 51 C84.73111957 65.88950705 60.70103612 70.83843105 42 74 C41.01 74 40.02 74 39 74 C38.58657349 72.98353394 38.58657349 72.98353394 38.16479492 71.9465332 C28.37245621 48.00364938 17.36103041 25.05166677 2.1484375 4.0234375 C0 1 0 1 0 0 Z " fill="#020715" transform="translate(564,174)"/>
  <path d="M 0 0 C 5.187 1.704 5.999 1.971 6.836 2.246 C 9 3 9 3 11 4 C 13.74 4.099 16.448 4.139 19.188 4.125 C 26.061 4.129 30.441 3.761 35 3 C 36.016 5.995 37.01 8.996 38 12 C 39.361 16.024 40.056 18.136 40.75 20.25 C 42.741 26.279 43.457 29.059 42 33 C 40.223 36.008 40.223 36.008 38.063 39.125 C 33.34 45.99 32.68 46.98 32 48 C 27.857 47.429 24.328 46.485 20.48 44.855 C 4.989 38.306 -1.02 35.689 -7 33 C -6.436 25.102 -4.524 17.644 -2.524 10.015 C -1.658 6.683 -0.831 3.341 0 0 Z" fill="#3183B1" transform="translate(637,470)"/>
  <path d="M0 0 C3.47755187 3.30337397 6.2501534 6.57213805 8.8125 10.625 C9.41707031 11.56601562 10.02164063 12.50703125 10.64453125 13.4765625 C12 16 12 16 12 19 C11.48203857 19.26627197 10.96407715 19.53254395 10.43041992 19.80688477 C-11.12023935 29.52699818 -11.12023935 29.52699818 -27.4375 45.5625 C-27.623125 46.366875 -27.80875 47.17125 -28 48 C-28.20625 48.845625 -28.4125 49.69125 -28.625 50.5625 C-29.48500722 58.44589955 -30.25795677 66.04533727 -26 73 C-24.0962291 74.8989267 -22.18045322 76.40100097 -20 78 C-21.450954 81.82524236 -23.38181932 83.19090966 -27 85 C-27.66 85 -28.32 85 -29 85 C-29.12004395 84.0205542 -29.24008789 83.0411084 -29.36376953 82.03198242 C-31.81094782 62.24648967 -34.7558227 42.90694581 -39.43554688 23.51269531 C-40.14591241 20.35046258 -40.61937526 17.21718528 -41 14 C-40.36199463 13.82460693 -39.72398926 13.64921387 -39.06665039 13.46850586 C-25.65782655 9.75179227 -12.71066748 5.68180652 0 0 Z " fill="#3183B2" transform="translate(671,263)"/>
  <path d="M0 0 C1.68186649 3.36373299 0.62333558 7.08219006 0.22265625 10.7265625 C0.08735756 12.02078629 0.08735756 12.02078629 -0.05067444 13.34115601 C-0.34070478 16.10305965 -0.63900697 18.86399939 -0.9375 21.625 C-1.13531011 23.49473414 -1.33258265 25.36452524 -1.52929688 27.234375 C-2.01329067 31.82360139 -2.50470597 36.41198 -3 41 C-10.94525334 41.23246223 -18.88907021 41.4097499 -26.83689117 41.51812172 C-30.52823078 41.57015727 -34.21723267 41.64062604 -37.90722656 41.75439453 C-41.47361391 41.8636545 -45.03776509 41.92295862 -48.60569763 41.94877243 C-50.6181327 41.97604592 -52.62967591 42.05402495 -54.64074707 42.13296509 C-63.60797203 42.13842421 -63.60797203 42.13842421 -67.6315918 38.84783936 C-70.61052174 35.25147739 -73.38499499 31.74620968 -74 27 C-72.875 25.1875 -72.875 25.1875 -71 24 C-66.28396964 24.32726901 -63.02089774 26.76801671 -59.25 29.375 C-49.72007336 35.67184557 -41.68170955 38.45464744 -30 37 C-21.88905758 34.7615457 -18.18514346 26.69113583 -14.16308594 19.93896484 C-12.22875794 16.71427278 -10.20980048 13.54496758 -8.1875 10.375 C-7.6462146 9.50597046 -7.6462146 9.50597046 -7.09399414 8.61938477 C-5.02375203 5.35268217 -2.84492394 2.62116588 0 0 Z " fill="#3182B0" transform="translate(384,322)"/>
  <path d="M0 0 C4.95087098 1.71946417 9.24248926 4.39979057 13.6875 7.125 C14.88318604 7.85553589 14.88318604 7.85553589 16.10302734 8.60083008 C22.11649242 12.3303525 27.6723561 16.32827206 33 21 C30.27136433 23.72863567 27.08993105 24.47085394 23.5 25.625 C22.46552734 25.96917969 22.46552734 25.96917969 21.41015625 26.3203125 C16.28111049 28 16.28111049 28 14 28 C9.33333333 18.66666667 4.66666667 9.33333333 0 0 Z " fill="#3183B1" transform="translate(601,203)"/>
  <path d="M 0 0 C 2.042 0.624 4.084 1.249 6.125 1.875 C 7.262 2.223 8.399 2.571 9.57 2.93 C 12.728 3.915 15.866 4.943 19 6 C 19 6.66 19 7.32 19 8 C 11.9 12.999 11.238 13.436 10.556 13.886 C 5.395 17.227 0.104 20.281 -5.312 23.188 C -6.047 23.586 -6.782 23.984 -7.539 24.395 C -9.326 25.33 -11.16 26.174 -13 27 C -13.66 26.67 -14.32 26.34 -15 26 C -14.492 25.201 -13.984 24.402 -13.461 23.578 C -1 1 -1 1 0 0 Z" fill="#3081B0" transform="translate(611,551)"/>
  <path d="M0 0 C0.33 0.66 0.66 1.32 1 2 C-0.24125182 4.61161731 -1.5310524 7.10501786 -2.9375 9.625 C-3.32357422 10.33140625 -3.70964844 11.0378125 -4.10742188 11.765625 C-5.06448696 13.51433651 -6.03134031 15.25768432 -7 17 C-10.73872495 15.30343574 -12.6288741 13.38732271 -15 10 C-15 9.34 -15 8.68 -15 8 C-10.05 5.36 -5.1 2.72 0 0 Z " fill="#025A96" transform="translate(422,203)"/>
  <path d="M0 0 C3.96149465 0.60631917 6.98723529 1.84797404 10.51953125 3.72265625 C11.54111328 4.26083984 12.56269531 4.79902344 13.61523438 5.35351562 C14.67033203 5.91748047 15.72542969 6.48144531 16.8125 7.0625 C17.88693359 7.63033203 18.96136719 8.19816406 20.06835938 8.78320312 C22.71530675 10.18314418 25.35898899 11.58890112 28 13 C28 13.66 28 14.32 28 15 C21.63867695 14.65244427 17.01274494 11.32707017 11.75 8.0625 C10.83992187 7.51142578 9.92984375 6.96035156 8.9921875 6.39257812 C2.31738095 2.31738095 2.31738095 2.31738095 0 0 Z " fill="#3182AF" transform="translate(686,338)"/>
  <path d="M0 0 C2.82557377 1.66997752 5.0679011 3.32439707 7 6 C7.32351709 9.80393477 6.78810924 13.27800509 6 17 C3.38832897 14.38832897 2.92868518 12.0278941 1.875 8.5 C1.52179688 7.3346875 1.16859375 6.169375 0.8046875 4.96875 C0 2 0 2 0 0 Z " fill="#025892" transform="translate(312,440)"/>
  <path d="M0 0 C2.93814003 1.46907001 3.3286226 3.59447806 4.625 6.5625 C5.07101562 7.57441406 5.51703125 8.58632813 5.9765625 9.62890625 C6.31429688 10.41136719 6.65203125 11.19382812 7 12 C0.125 10.125 0.125 10.125 -1 9 C-0.91062197 7.47480724 -0.75462854 5.95318071 -0.5625 4.4375 C-0.46066406 3.61121094 -0.35882813 2.78492188 -0.25390625 1.93359375 C-0.17011719 1.29550781 -0.08632813 0.65742187 0 0 Z " fill="#01538E" transform="translate(424,568)"/>
  <path d="M0 0 C3.23861303 1.44424635 5.61969163 3.25772247 8.25 5.625 C8.95640625 6.25664063 9.6628125 6.88828125 10.390625 7.5390625 C10.92171875 8.02117188 11.4528125 8.50328125 12 9 C11.67 9.66 11.34 10.32 11 11 C10.01 11 9.02 11 8 11 C5.95703125 8.84765625 5.95703125 8.84765625 3.8125 6.0625 C3.09707031 5.14597656 2.38164062 4.22945312 1.64453125 3.28515625 C0 1 0 1 0 0 Z " fill="#06568C" transform="translate(343,509)"/>
</svg>